<?xml version="1.0" encoding="UTF-8"?>
<svg version="1.1" xmlns="http://www.w3.org/2000/svg" width="256" height="256">
<path d="M0 0 C1.12148438 0.00322266 2.24296875 0.00644531 3.3984375 0.00976562 C4.5740625 0.01814453 5.7496875 0.02652344 6.9609375 0.03515625 C8.14429687 0.03966797 9.32765625 0.04417969 10.546875 0.04882812 C13.47661257 0.06064158 16.40625022 0.07711367 19.3359375 0.09765625 C19.39201172 1.61746094 19.39201172 1.61746094 19.44921875 3.16796875 C19.51492138 4.51956564 19.58136721 5.87112654 19.6484375 7.22265625 C19.68227539 8.22039063 19.68227539 8.22039063 19.71679688 9.23828125 C20.03563044 15.1511947 21.45313473 19.31140746 25.7734375 23.41015625 C30.2599521 26.36469025 34.49406497 26.25033506 39.74731445 26.25878906 C40.85786194 26.26623642 40.85786194 26.26623642 41.99084473 26.27383423 C44.43531227 26.28841504 46.8797149 26.29525115 49.32421875 26.30078125 C51.02809144 26.30653621 52.73196412 26.3122939 54.43583679 26.3180542 C58.00760194 26.32855268 61.57934465 26.33440284 65.15112305 26.33789062 C69.71741496 26.34337188 74.28340818 26.36739682 78.84960651 26.39586258 C82.36959181 26.4145296 85.88950575 26.41969673 89.40953636 26.4212265 C91.09237488 26.42424456 92.77521238 26.43224439 94.45800209 26.44541168 C96.81768849 26.46255708 99.17665273 26.46057154 101.53637695 26.45410156 C102.22493271 26.46331635 102.91348846 26.47253113 103.62290955 26.48202515 C108.62842032 26.43925226 111.95929619 25.35462965 116.3359375 23.09765625 C121.26929646 18.03447206 121.45305246 13.71931108 121.8984375 6.84765625 C121.98222656 5.584375 122.06601563 4.32109375 122.15234375 3.01953125 C122.21292969 2.0553125 122.27351562 1.09109375 122.3359375 0.09765625 C126.37735965 -0.01896636 130.41834615 -0.08973725 134.4609375 -0.15234375 C135.60304687 -0.18585937 136.74515625 -0.219375 137.921875 -0.25390625 C148.69164607 -0.37913615 148.69164607 -0.37913615 153.3359375 4.09765625 C156.02720988 7.86024498 156.70908361 10.41168535 156.69670105 15.01387024 C156.70288704 16.79115257 156.70288704 16.79115257 156.709198 18.6043396 C156.69841217 19.89546661 156.68762634 21.18659363 156.67651367 22.5168457 C156.67566701 23.89687583 156.67614331 25.2769073 156.67784119 26.65693665 C156.67870104 30.39630958 156.66107709 34.13539313 156.64011931 37.87469888 C156.62135077 41.78511855 156.61960194 45.69554504 156.61604309 49.60600281 C156.60672314 57.00783736 156.58211006 64.4095388 156.55199462 71.81131476 C156.51844905 80.23930477 156.50196421 88.66730117 156.48690832 97.09534132 C156.45556043 114.42952326 156.40280093 131.76357568 156.3359375 149.09765625 C155.53567139 149.15099121 154.73540527 149.20432617 153.91088867 149.25927734 C152.31724487 149.37650146 152.31724487 149.37650146 150.69140625 149.49609375 C149.64364014 149.57005371 148.59587402 149.64401367 147.51635742 149.72021484 C136.65408634 151.00931219 127.84415968 156.46951256 121.0234375 164.91015625 C114.63050636 174.03784127 111.90414726 184.7859926 113.796875 195.7734375 C116.31294928 206.2373464 121.33064582 214.99010694 130.3359375 221.09765625 C134.26107588 223.27239508 138.25222051 225.23956502 142.3359375 227.09765625 C142.3359375 227.42765625 142.3359375 227.75765625 142.3359375 228.09765625 C123.29045769 228.19114533 104.24502453 228.26165786 85.19936275 228.30490494 C76.35589357 228.32552008 67.51256706 228.35362058 58.66918945 228.39941406 C50.96025911 228.43931399 43.25143211 228.46509669 35.54240137 228.47401023 C31.46142028 228.47921966 27.3807348 228.49144165 23.29984856 228.52057648 C19.45602379 228.54779562 15.61261545 228.55608825 11.76870346 228.55008698 C10.36063306 228.55118432 8.95254824 228.55909981 7.54456139 228.57447815 C-5.75595055 228.71258171 -5.75595055 228.71258171 -11.6640625 224.09765625 C-15.73473147 218.67009762 -15.81104563 213.5894713 -15.79777527 206.99504089 C-15.80004083 206.17168458 -15.80230638 205.34832826 -15.80464059 204.50002176 C-15.81097776 201.7372236 -15.8101514 198.97447454 -15.80932617 196.21166992 C-15.81231786 194.23231442 -15.81572041 192.2529595 -15.81950378 190.27360535 C-15.82834747 184.89337539 -15.83068207 179.51316132 -15.83131957 174.1329248 C-15.83226865 169.64239404 -15.83594697 165.151867 -15.83949167 160.66133767 C-15.84763779 150.06645953 -15.85007577 139.47158989 -15.84936523 128.87670898 C-15.84876453 117.94657177 -15.85931457 107.01648392 -15.8751089 96.0863592 C-15.88818416 86.70365421 -15.89354913 77.32096535 -15.89290982 67.93825132 C-15.89265481 62.33384391 -15.89550764 56.72948035 -15.90608788 51.12508202 C-15.91576848 45.85313645 -15.91584825 40.58127667 -15.90857124 35.30932808 C-15.90752533 33.37558238 -15.90988869 31.44183133 -15.9159317 29.50809479 C-15.92365366 26.86570324 -15.91900541 24.22360775 -15.91130066 21.58122253 C-15.91644422 20.81836935 -15.92158779 20.05551616 -15.92688721 19.26954621 C-15.89358123 14.0904394 -15.65520756 8.51083749 -12.2265625 4.35546875 C-7.67342674 1.05444532 -5.59221109 -0.02824349 0 0 Z M25.9765625 49.06640625 C25.18765625 49.90171875 24.39875 50.73703125 23.5859375 51.59765625 C22.78671875 52.43296875 21.9875 53.26828125 21.1640625 54.12890625 C20.25914063 55.1034375 20.25914063 55.1034375 19.3359375 56.09765625 C18.73265625 55.77023438 18.129375 55.4428125 17.5078125 55.10546875 C14.96046451 53.92342598 13.11181712 53.94344072 10.3359375 54.09765625 C9.58165175 55.90701173 9.58165175 55.90701173 9.3359375 58.09765625 C10.36808234 60.06503993 10.36808234 60.06503993 12.0234375 61.78515625 C12.54292969 62.38714844 13.06242187 62.98914063 13.59765625 63.609375 C15.6024661 65.32585265 16.72128407 65.81411404 19.3359375 66.09765625 C21.15833863 64.99814312 21.15833863 64.99814312 22.75390625 63.23828125 C23.36814453 62.61695313 23.98238281 61.995625 24.61523438 61.35546875 C25.24494141 60.69289063 25.87464844 60.0303125 26.5234375 59.34765625 C27.16474609 58.70054688 27.80605469 58.0534375 28.46679688 57.38671875 C32.13206322 53.71708399 32.13206322 53.71708399 34.3359375 49.09765625 C33.6759375 48.43765625 33.0159375 47.77765625 32.3359375 47.09765625 C28.33565943 46.67053331 28.33565943 46.67053331 25.9765625 49.06640625 Z M51.3359375 55.09765625 C51.50260417 57.18098958 51.50260417 57.18098958 52.3359375 59.09765625 C55.32778671 60.59358086 58.06306725 60.24151256 61.40014648 60.25878906 C62.12713745 60.26375397 62.85412842 60.26871887 63.60314941 60.27383423 C66.01278624 60.28846299 68.42235728 60.29525848 70.83203125 60.30078125 C72.50350446 60.30653146 74.17497765 60.31228921 75.84645081 60.3180542 C79.35279651 60.32856577 82.85911927 60.33440763 86.36547852 60.33789062 C90.86272149 60.34338027 95.35966243 60.36741751 99.85681057 60.39586258 C103.3097269 60.41446631 106.76257008 60.41969331 110.2155323 60.4212265 C111.87376624 60.42425795 113.53199874 60.43230299 115.19018364 60.44541168 C117.50780253 60.46242776 119.82467833 60.46060337 122.14233398 60.45410156 C123.46200668 60.45774719 124.78167938 60.46139282 126.14134216 60.46514893 C129.32306298 60.38037983 129.32306298 60.38037983 131.28553772 58.57537842 C131.80548561 57.84390594 131.80548561 57.84390594 132.3359375 57.09765625 C131.3459375 55.11765625 131.3459375 55.11765625 130.3359375 53.09765625 C120.33094555 53.05138105 110.32597892 53.01581163 100.32090187 52.99403191 C95.67548476 52.98358043 91.03014069 52.96939646 86.38476562 52.94677734 C81.90440525 52.92509745 77.42411528 52.91309791 72.94370651 52.90790176 C71.23162095 52.90419726 69.51953938 52.89696359 67.80748367 52.88619614 C65.41535264 52.87174557 63.02351508 52.86967558 60.63134766 52.87060547 C59.56212318 52.85981964 59.56212318 52.85981964 58.47129822 52.84881592 C54.45667626 52.75376598 54.45667626 52.75376598 51.3359375 55.09765625 Z M25.7578125 87.28515625 C24.87609375 88.21328125 23.994375 89.14140625 23.0859375 90.09765625 C21.74789062 91.48984375 21.74789062 91.48984375 20.3828125 92.91015625 C19.70734375 93.63203125 19.031875 94.35390625 18.3359375 95.09765625 C17.41554688 94.34548828 17.41554688 94.34548828 16.4765625 93.578125 C14.45421314 91.82262639 14.45421314 91.82262639 12.0859375 92.41015625 C11.5084375 92.63703125 10.9309375 92.86390625 10.3359375 93.09765625 C9.54498606 94.896797 9.54498606 94.896797 9.3359375 97.09765625 C10.55592599 99.15045186 10.55592599 99.15045186 12.4609375 100.91015625 C13.36199219 101.84794922 13.36199219 101.84794922 14.28125 102.8046875 C16.26333601 104.29505849 16.26333601 104.29505849 18.6875 104.1640625 C22.480744 102.63669434 24.79143138 100.14729868 27.5859375 97.22265625 C28.12734375 96.67996094 28.66875 96.13726562 29.2265625 95.578125 C31.62693938 93.12373964 33.23731517 91.39352325 34.3359375 88.09765625 C33.6759375 87.10765625 33.0159375 86.11765625 32.3359375 85.09765625 C28.28075908 84.66633795 28.28075908 84.66633795 25.7578125 87.28515625 Z M51.3359375 93.09765625 C51.74122651 95.8800328 51.74122651 95.8800328 53.3359375 98.09765625 C55.72863701 98.2032447 58.09261706 98.24444065 60.48608398 98.24291992 C61.23404236 98.24627853 61.98200073 98.24963715 62.75262451 98.25309753 C65.23744342 98.26263527 67.72219515 98.26455205 70.20703125 98.265625 C71.92717009 98.26883563 73.64730865 98.27219954 75.3674469 98.27571106 C78.97812534 98.2817094 82.58877982 98.28355024 86.19946289 98.28295898 C90.83464735 98.28285732 95.46967877 98.29651053 100.10482693 98.31373119 C103.65892752 98.32482944 107.21299086 98.32687886 110.76710701 98.32634926 C112.47639557 98.32753263 114.185685 98.33197426 115.89495659 98.33968163 C118.2822134 98.34943784 120.6691347 98.34662097 123.05639648 98.34057617 C124.12326439 98.34900543 124.12326439 98.34900543 125.21168518 98.35760498 C129.22033347 98.44141941 129.22033347 98.44141941 132.3359375 96.09765625 C131.93064849 93.3152797 131.93064849 93.3152797 130.3359375 91.09765625 C127.94323799 90.9920678 125.57925794 90.95087185 123.18579102 90.95239258 C122.43783264 90.94903397 121.68987427 90.94567535 120.91925049 90.94221497 C118.43443158 90.93267723 115.94967985 90.93076045 113.46484375 90.9296875 C111.74470491 90.92647687 110.02456635 90.92311296 108.3044281 90.91960144 C104.69374966 90.9136031 101.08309518 90.91176226 97.47241211 90.91235352 C92.83722765 90.91245518 88.20219623 90.89880197 83.56704807 90.88158131 C80.01294748 90.87048306 76.45888414 90.86843364 72.90476799 90.86896324 C71.19547943 90.86777987 69.48619 90.86333824 67.77691841 90.85563087 C65.3896616 90.84587466 63.0027403 90.84869153 60.61547852 90.85473633 C59.54861061 90.84630707 59.54861061 90.84630707 58.46018982 90.83770752 C54.45154153 90.75389309 54.45154153 90.75389309 51.3359375 93.09765625 Z M26.953125 125.28515625 C26.04820313 126.21328125 25.14328125 127.14140625 24.2109375 128.09765625 C23.30085938 129.02578125 22.39078125 129.95390625 21.453125 130.91015625 C20.75445312 131.63203125 20.05578125 132.35390625 19.3359375 133.09765625 C18.71976563 132.783125 18.10359375 132.46859375 17.46875 132.14453125 C15.37827187 131.11843576 13.64498605 130.40552939 11.3359375 130.09765625 C10.6759375 130.75765625 10.0159375 131.41765625 9.3359375 132.09765625 C9.67565809 135.30540262 10.88051333 137.11947083 13.0859375 139.41015625 C13.57578125 139.94253906 14.065625 140.47492188 14.5703125 141.0234375 C16.32082471 142.29277024 16.32082471 142.29277024 18.6484375 142.1328125 C22.49016836 140.65307605 24.77497074 138.16452587 27.5859375 135.22265625 C28.12734375 134.67996094 28.66875 134.13726562 29.2265625 133.578125 C31.62693938 131.12373964 33.23731517 129.39352325 34.3359375 126.09765625 C32.96108218 124.55598983 32.96108218 124.55598983 31.3359375 123.09765625 C29.04238028 122.87223249 29.04238028 122.87223249 26.953125 125.28515625 Z M51.3359375 131.09765625 C51.83349842 133.85407041 51.83349842 133.85407041 53.3359375 136.09765625 C55.73942036 136.19262333 58.11404732 136.22324487 60.51782227 136.21118164 C61.6445787 136.21140068 61.6445787 136.21140068 62.7940979 136.21162415 C65.28854209 136.21092488 67.78291253 136.20313189 70.27734375 136.1953125 C72.00227314 136.19344837 73.72720307 136.19202444 75.45213318 136.19102478 C80.00106253 136.18719922 84.54996017 136.17736863 89.09887695 136.1663208 C93.73713756 136.15610749 98.37540327 136.15152733 103.01367188 136.14648438 C112.12110772 136.13574639 121.22851998 136.11866952 130.3359375 136.09765625 C130.9959375 134.77765625 131.6559375 133.45765625 132.3359375 132.09765625 C131.28349107 130.47119245 131.28349107 130.47119245 129.3359375 129.09765625 C126.02258742 128.64564967 126.02258742 128.64564967 122.15820312 128.7253418 C121.43106613 128.72169113 120.70392914 128.71804047 119.95475769 128.71427917 C117.5503303 128.70617082 115.14657626 128.71978562 112.7421875 128.734375 C111.07214356 128.73489358 109.402099 128.73437597 107.73205566 128.73286438 C104.23159678 128.73295412 100.73136815 128.7433862 97.23095703 128.76147461 C92.74162379 128.78416188 88.25262705 128.78470605 83.76325226 128.77795696 C80.31460575 128.77461716 76.86603611 128.78124728 73.41740417 128.7910862 C71.76198224 128.79493829 70.10655176 128.79608637 68.4511261 128.79450035 C66.13847533 128.79412992 63.82625765 128.80674325 61.51367188 128.82299805 C59.53868713 128.82990913 59.53868713 128.82990913 57.52380371 128.83695984 C54.18056489 128.85093287 54.18056489 128.85093287 51.3359375 131.09765625 Z " fill="#F87216" transform="translate(41.6640625,27.90234375)"/>
<path d="M0 0 C4.84401353 3.60449358 7.88952593 7.59922497 10.75 12.875 C11.348125 13.968125 11.94625 15.06125 12.5625 16.1875 C15.55086732 25.46716695 15.70645957 35.35829686 11.640625 44.3203125 C6.69178907 53.57646859 0.44661874 59.84060975 -9.4375 63.75 C-19.4654966 66.67264473 -30.02854176 65.67072751 -39.25 60.875 C-47.89408328 55.7186402 -52.94843712 48.30183086 -56.25 38.875 C-58.1749478 28.90290198 -57.10325801 19.25604912 -51.875 10.4375 C-39.74768989 -7.03160147 -18.03205543 -11.59972521 0 0 Z M-12.98925781 19.16015625 C-13.55483398 19.74667969 -14.12041016 20.33320313 -14.703125 20.9375 C-15.321875 21.56914062 -15.940625 22.20078125 -16.578125 22.8515625 C-17.21234375 23.51929688 -17.8465625 24.18703125 -18.5 24.875 C-19.1496875 25.54273438 -19.799375 26.21046875 -20.46875 26.8984375 C-22.07184289 28.54868018 -23.66487834 30.20751791 -25.25 31.875 C-27.71800047 30.72326645 -29.29783565 29.82716435 -31.25 27.875 C-33.85280568 28.19541397 -33.85280568 28.19541397 -36.25 28.875 C-36.10098119 33.79262088 -33.433786 36.23373958 -30.234375 39.6171875 C-28.30707741 41.1182588 -28.30707741 41.1182588 -25.89111328 40.68115234 C-20.99365773 39.18629209 -17.90647865 35.18590764 -14.375 31.625 C-13.57835937 30.86058594 -12.78171875 30.09617187 -11.9609375 29.30859375 C-11.21328125 28.56222656 -10.465625 27.81585938 -9.6953125 27.046875 C-9.00969238 26.3672168 -8.32407227 25.68755859 -7.61767578 24.98730469 C-5.95557875 22.90391162 -5.95557875 22.90391162 -6.53466797 20.11425781 C-6.77072754 19.37530273 -7.00678711 18.63634766 -7.25 17.875 C-11.07425211 17.47881548 -11.07425211 17.47881548 -12.98925781 19.16015625 Z " fill="#F97215" transform="translate(215.25,187.125)"/>
<path d="M0 0 C5.94303331 4.05206817 8.16193003 7.84788235 9.5859375 14.7265625 C9.7614596 17.02506617 9.35354331 18.66816842 8.75 20.875 C9.55219971 20.86452637 10.35439941 20.85405273 11.1809082 20.84326172 C14.80807372 20.80174233 18.43518928 20.77568657 22.0625 20.75 C23.32513672 20.73324219 24.58777344 20.71648438 25.88867188 20.69921875 C27.70141602 20.68955078 27.70141602 20.68955078 29.55078125 20.6796875 C30.66622314 20.66921387 31.78166504 20.65874023 32.9309082 20.64794922 C35.75 20.875 35.75 20.875 38.75 22.875 C39.43651537 26.26806231 39.25925466 29.73319853 39.25 33.1875 C39.27835937 34.13818359 39.30671875 35.08886719 39.3359375 36.06835938 C39.33980469 37.4518457 39.33980469 37.4518457 39.34375 38.86328125 C39.35083984 39.70415283 39.35792969 40.54502441 39.36523438 41.41137695 C38.443739 45.10138085 36.69285898 46.50896426 33.75 48.875 C30.84976586 49.37018573 28.53697457 49.56101761 25.64257812 49.52197266 C24.8403331 49.53073425 24.03808807 49.53949585 23.21153259 49.54852295 C20.56755002 49.57047625 17.92524868 49.55597966 15.28125 49.5390625 C13.43949056 49.54243183 11.59773329 49.54728542 9.75598145 49.55355835 C5.89911698 49.56092413 2.04283215 49.55023382 -1.81396484 49.52685547 C-6.75405769 49.49836765 -11.69279236 49.51477323 -16.63283539 49.54471779 C-20.43506069 49.56279884 -24.23696478 49.55702908 -28.03919983 49.54407883 C-29.86043967 49.54074704 -31.68170882 49.54482393 -33.50291443 49.55647659 C-36.05025291 49.56919901 -38.59540243 49.54979125 -41.14257812 49.52197266 C-41.89285782 49.53209381 -42.64313751 49.54221497 -43.41615295 49.55264282 C-47.34690729 49.47324682 -49.08557045 49.00640763 -52.19421387 46.52206421 C-55.5547438 42.19499031 -55.49172462 38.20790697 -55.5625 32.9375 C-55.60600586 31.86338867 -55.60600586 31.86338867 -55.65039062 30.76757812 C-55.6902614 27.4583042 -55.61134662 25.36448448 -53.61694336 22.6628418 C-50.5423581 20.34049132 -48.7770766 20.41222497 -44.953125 20.484375 C-43.14521484 20.50371094 -43.14521484 20.50371094 -41.30078125 20.5234375 C-40.04652344 20.55695312 -38.79226562 20.59046875 -37.5 20.625 C-36.23027344 20.64304687 -34.96054688 20.66109375 -33.65234375 20.6796875 C-30.51746923 20.72682847 -27.3841144 20.79262336 -24.25 20.875 C-24.58 20.215 -24.91 19.555 -25.25 18.875 C-25.59314731 13.1058358 -24.76428475 8.84304233 -21 4.375 C-14.97506123 -1.67433123 -8.06036741 -2.79012718 0 0 Z M-13.625 9.5 C-15.59640997 12.3812915 -16.10202291 14.39753835 -16.25 17.875 C-15.26 19.36 -15.26 19.36 -14.25 20.875 C-11.12442041 21.24030232 -11.12442041 21.24030232 -7.625 21.0625 C-6.43648437 21.03542969 -5.24796875 21.00835937 -4.0234375 20.98046875 C-3.10820313 20.94566406 -2.19296875 20.91085938 -1.25 20.875 C-0.11655961 18.01686316 -0.11655961 18.01686316 0.75 14.875 C-0.58126447 11.94621816 -1.98304965 10.14195035 -4.25 7.875 C-8.11650087 7.44538879 -10.36331049 7.2683177 -13.625 9.5 Z " fill="#F97216" transform="translate(120.25,1.125)"/>
</svg>
